# xmcd CD database file
#
# Track frame offsets:
#	150
#	61765
#	72867
#	79357
#	89677
#	97950
#	115855
#	125197
#	135937
#
# Disc length: 2676 seconds
#
# Revision: 0
# Processed by: cddbd v1.5.1PL0 Copyright (c) Steve Scherf et al.
# Submitted via: CDex 1.51
#
DISCID=780a7209
DTITLE=Orchestra of Colours - Jani Christou
DYEAR=1900
DGENRE=Jazz
TTITLE0=Phoenix Music, for orchestra
TTITLE1=Virginia (Landscapes, II)
TTITLE2=New Hampshire (Landscapes, I)
TTITLE3=Death by Water (Waste Land, IV)
TTITLE4=Melange adultere de tout (Poems - 1920)
TTITLE5=Eyes that I last saw in tears (Minor Poems)
TTITLE6=The Wind Sprang up at Four o'clock (Minor Poems)
TTITLE7=Virginia (Landscapes, II)
TTITLE8=Toccata for pianoforte and orchestra
EXTD=
EXTT0=
EXTT1=
EXTT2=
EXTT3=
EXTT4=
EXTT5=
EXTT6=
EXTT7=
EXTT8=
PLAYORDER=
